<svg width="40" height="40" viewBox="0 0 40 40" fill="none" xmlns="http://www.w3.org/2000/svg">
<path d="M5.0971 34.3155L5.0971 34.8008C5.0971 37.0099 3.30622 38.8008 1.09707 38.8008L0.854442 38.8008V1.09191H39.0382C39.0382 3.1728 37.3513 4.8597 35.2704 4.8597L34.5529 4.8597C32.3438 4.8597 30.553 6.65056 30.5529 8.8597L30.553 9.34498C30.553 11.5541 28.7621 13.345 26.5529 13.345L26.0677 13.345C23.8585 13.345 22.0677 15.1358 22.0677 17.345L22.0677 17.8303C22.0677 20.0394 20.2768 21.8303 18.0677 21.8303L17.5824 21.8303C15.3732 21.8303 13.5824 23.6211 13.5824 25.8303V26.3155C13.5824 28.5247 11.7915 30.3155 9.58238 30.3155L9.0971 30.3155C6.88797 30.3155 5.0971 32.1064 5.0971 34.3155Z" fill="#FFFCEF" stroke="#FFFCEF"/>
</svg>
