<svg width="18" height="21" viewBox="0 0 18 21" fill="none" xmlns="http://www.w3.org/2000/svg">
<path d="M5.02326 0C2.24899 0 0 2.3505 0 5.24999V15.75C0 18.6495 2.24899 21 5.02326 21L14.6512 21C16.5007 21 18 19.433 18 17.5C18 16.4689 17.5734 15.5419 16.8946 14.9014L13.531 11.3861C13.0638 10.8977 13.0638 10.1155 13.531 9.62719L17.0089 5.99233C17.2144 5.77757 17.3876 5.54186 17.5285 5.29177C17.8279 4.76764 18 4.15483 18 3.50003C18 1.56703 16.5007 3.06394e-05 14.6512 3.04761e-05L5.02326 0Z" fill="url(#paint0_linear_1315_42)"/>
<defs>
<linearGradient id="paint0_linear_1315_42" x1="17.0089" y1="1.04258" x2="-1.90075" y2="19.1356" gradientUnits="userSpaceOnUse">
<stop stop-color="#EEAD4D"/>
<stop offset="1" stop-color="#D23C19"/>
</linearGradient>
</defs>
</svg>
